<svg width="26" height="21" viewBox="0 0 26 21" fill="none" xmlns="http://www.w3.org/2000/svg">
<path d="M20.105 14.241H20.087C19.9081 14.2368 19.7353 14.1756 19.5937 14.0662C19.4521 13.9568 19.3492 13.805 19.3 13.633L16.645 4.34801L15.024 8.67101C14.9643 8.83051 14.8573 8.96802 14.7174 9.06521C14.5775 9.1624 14.4113 9.21465 14.241 9.21501H10.89V7.54001H13.66L15.97 1.38201C16.0319 1.21702 16.1443 1.07574 16.2911 0.978273C16.4379 0.8808 16.6117 0.83209 16.7878 0.839067C16.9639 0.846044 17.1333 0.908352 17.2719 1.01713C17.4105 1.12592 17.5114 1.27564 17.56 1.44501L20.166 10.569L21.824 5.59901C21.8797 5.43225 21.9864 5.28726 22.1291 5.18459C22.2718 5.08192 22.4432 5.02678 22.619 5.02701H25.97V6.70201H23.221L20.899 13.669C20.8435 13.8357 20.737 13.9806 20.5945 14.0833C20.4519 14.186 20.2807 14.2412 20.105 14.241Z" fill="white"/>
<path d="M11.728 20.102H10.052V14.241C10.0515 13.5747 9.78654 12.9358 9.31537 12.4646C8.84421 11.9935 8.20533 11.7285 7.539 11.728H4.188C3.52167 11.7285 2.88279 11.9935 2.41163 12.4646C1.94046 12.9358 1.67553 13.5747 1.675 14.241V20.102H0V14.241C0.00132268 13.1306 0.44295 12.066 1.22804 11.2807C2.01312 10.4955 3.07759 10.0536 4.188 10.052H7.539C8.64941 10.0536 9.71387 10.4955 10.499 11.2807C11.284 12.066 11.7257 13.1306 11.727 14.241L11.728 20.102Z" fill="white"/>
<path d="M5.86298 1.675C6.35996 1.675 6.84578 1.82236 7.25902 2.09845C7.67226 2.37454 7.99436 2.76695 8.18459 3.22609C8.37482 3.68522 8.42465 4.19045 8.32776 4.67789C8.23088 5.16534 7.99164 5.61312 7.64029 5.96461C7.28894 6.3161 6.84126 6.55551 6.35385 6.65259C5.86644 6.74967 5.36119 6.70005 4.90198 6.51C4.44278 6.31995 4.05023 5.998 3.77398 5.58488C3.49773 5.17175 3.35017 4.68598 3.34998 4.189C3.34984 3.8589 3.41475 3.53202 3.54098 3.22701C3.66721 2.922 3.8523 2.64485 4.08566 2.41139C4.31903 2.17793 4.5961 1.99274 4.90106 1.86639C5.20602 1.74003 5.53288 1.675 5.86298 1.675ZM5.86298 1.19415e-07C5.03443 -0.000197672 4.22443 0.245315 3.53542 0.705488C2.84641 1.16566 2.30934 1.81982 1.99213 2.58525C1.67492 3.35067 1.59182 4.19297 1.75334 5.00562C1.91486 5.81827 2.31375 6.56477 2.89955 7.15072C3.48535 7.73666 4.23176 8.13572 5.04437 8.29744C5.85699 8.45915 6.69931 8.37625 7.46481 8.05923C8.2303 7.7422 8.88459 7.20529 9.34493 6.51639C9.80527 5.82749 10.051 5.01755 10.051 4.189C10.051 3.07818 9.60977 2.01284 8.8244 1.22728C8.03903 0.441722 6.97379 0.000265295 5.86298 1.19415e-07Z" fill="white"/>
</svg>