<svg width="26" height="26" viewBox="0 0 26 26" fill="none" xmlns="http://www.w3.org/2000/svg">
<path d="M1.85 16.694V18.549H6.108L0 24.657L1.312 25.969L7.42 19.861V24.114H9.275V16.694H1.85Z" fill="white"/>
<path d="M20.404 17.622H22.259V22.259H20.404V17.622Z" fill="white"/>
<path d="M16.694 12.984H18.549V22.259H16.694V12.984Z" fill="white"/>
<path d="M12.984 14.839H14.839V22.259H12.984V14.839Z" fill="white"/>
<path d="M24.114 0H1.85C1.35992 0.00184392 0.890433 0.197346 0.54389 0.54389C0.197346 0.890433 0.00184392 1.35992 0 1.85V12.984H1.85V10.202H24.11V24.114H12.984V25.969H24.114C24.6058 25.9685 25.0773 25.7729 25.4251 25.4251C25.7729 25.0773 25.9685 24.6058 25.969 24.114V1.85C25.9671 1.35905 25.771 0.888816 25.4233 0.542131C25.0757 0.195445 24.6049 0.000525269 24.114 0ZM9.275 8.35H1.85V1.85H9.27L9.275 8.35ZM11.13 8.35V1.85H24.114V8.35H11.13Z" fill="white"/>
</svg>