<svg width="26" height="29" viewBox="0 0 26 29" fill="none" xmlns="http://www.w3.org/2000/svg">
<path d="M24.223 12.085V24.545C24.1812 25.3985 23.8031 26.2008 23.1714 26.7764C22.5397 27.3519 21.7057 27.6538 20.852 27.616H5.11697C4.26339 27.6538 3.42958 27.352 2.79787 26.7767C2.16616 26.2014 1.78796 25.3994 1.74597 24.546V4.07099C1.78771 3.21743 2.1658 2.41514 2.79753 1.83962C3.42927 1.26411 4.26323 0.962215 5.11697 0.999988H12.053C12.6383 0.99648 13.2042 1.21028 13.641 1.59999L23.563 10.638C23.7676 10.8198 23.9319 11.0426 24.0452 11.2918C24.1586 11.541 24.2184 11.8112 24.221 12.085H24.223Z" stroke="white" stroke-width="1.7" stroke-linejoin="round"/>
<path d="M12.984 1.56198V9.99098C12.984 10.5872 13.2208 11.159 13.6424 11.5806C14.064 12.0021 14.6358 12.239 15.232 12.239H23.661" stroke="white" stroke-width="1.7" stroke-linecap="round" stroke-linejoin="round"/>
<path d="M7.36496 16.992H18.603" stroke="white" stroke-width="1.7" stroke-linecap="round" stroke-linejoin="round"/>
<path d="M7.36496 22.611H18.603" stroke="white" stroke-width="1.7" stroke-linecap="round" stroke-linejoin="round"/>
</svg>