<svg width="24" height="20" viewBox="0 0 24 20" fill="none" xmlns="http://www.w3.org/2000/svg">
<path fill-rule="evenodd" clip-rule="evenodd" d="M5.03099 1.19899C4.11773 2.11218 3.39328 3.19631 2.89902 4.38948C2.40476 5.58265 2.15037 6.8615 2.15037 8.15299C2.15037 9.44449 2.40476 10.7233 2.89902 11.9165C3.39328 13.1097 4.11773 14.1938 5.03099 15.107C5.16267 15.2387 5.23665 15.4173 5.23665 15.6035C5.23665 15.7897 5.16267 15.9683 5.03099 16.1C4.89931 16.2317 4.72072 16.3057 4.53449 16.3057C4.34827 16.3057 4.16967 16.2317 4.03799 16.1C1.93038 13.9923 0.746338 11.1337 0.746338 8.15299C0.746338 5.17231 1.93038 2.3137 4.03799 0.205993C4.16967 0.0743127 4.34827 0.000335693 4.53449 0.000335693C4.72072 0.000335693 4.89931 0.0743127 5.03099 0.205993C5.16267 0.337673 5.23665 0.516269 5.23665 0.702493C5.23665 0.888716 5.16267 1.06731 5.03099 1.19899ZM8.01199 4.17999C6.95837 5.23374 6.36646 6.66286 6.36646 8.15299C6.36646 9.64313 6.95837 11.0722 8.01199 12.126C8.14394 12.2579 8.21806 12.4369 8.21806 12.6235C8.21806 12.8101 8.14394 12.989 8.01199 13.121C7.88005 13.2529 7.70109 13.3271 7.51449 13.3271C7.32789 13.3271 7.14894 13.2529 7.01699 13.121C6.36452 12.4687 5.84694 11.6943 5.49381 10.842C5.14068 9.98964 4.95893 9.07608 4.95893 8.15349C4.95893 7.2309 5.14068 6.31735 5.49381 5.46501C5.84694 4.61268 6.36452 3.83826 7.01699 3.18599C7.14894 3.05405 7.32789 2.97992 7.51449 2.97992C7.70109 2.97992 7.88005 3.05405 8.01199 3.18599C8.14394 3.31794 8.21806 3.49689 8.21806 3.68349C8.21806 3.87009 8.14394 4.04905 8.01199 4.18099V4.17999ZM15.958 3.18499C16.0231 3.11923 16.1006 3.06703 16.186 3.0314C16.2714 2.99577 16.363 2.97743 16.4555 2.97743C16.548 2.97743 16.6396 2.99577 16.725 3.0314C16.8104 3.06703 16.8879 3.11923 16.953 3.18499C17.6055 3.83726 18.123 4.61168 18.4762 5.46401C18.8293 6.31635 19.0111 7.2299 19.0111 8.15249C19.0111 9.07508 18.8293 9.98864 18.4762 10.841C18.123 11.6933 17.6055 12.4677 16.953 13.12C16.8877 13.1853 16.8101 13.2372 16.7247 13.2725C16.6394 13.3079 16.5479 13.3261 16.4555 13.3261C16.2689 13.3261 16.0899 13.2519 15.958 13.12C15.826 12.988 15.7519 12.8091 15.7519 12.6225C15.7519 12.4359 15.826 12.2569 15.958 12.125C17.0116 11.0712 17.6035 9.64213 17.6035 8.15199C17.6035 6.66186 17.0116 5.23274 15.958 4.17899C15.8922 4.1139 15.84 4.03642 15.8044 3.95102C15.7688 3.86563 15.7504 3.77402 15.7504 3.68149C15.7504 3.58896 15.7688 3.49736 15.8044 3.41196C15.84 3.32657 15.8922 3.24908 15.958 3.18399V3.18499ZM18.939 0.206993C19.004 0.141534 19.0814 0.0895852 19.1666 0.0541363C19.2518 0.0186873 19.3432 0.000437737 19.4355 0.000437737C19.5278 0.000437737 19.6192 0.0186873 19.7044 0.0541363C19.7896 0.0895852 19.8669 0.141534 19.932 0.206993C22.0393 2.31466 23.2231 5.17305 23.2231 8.15349C23.2231 11.1339 22.0393 13.9923 19.932 16.1C19.8003 16.2317 19.6217 16.3057 19.4355 16.3057C19.2493 16.3057 19.0707 16.2317 18.939 16.1C18.8073 15.9683 18.7333 15.7897 18.7333 15.6035C18.7333 15.4173 18.8073 15.2387 18.939 15.107C19.8523 14.1938 20.5767 13.1097 21.071 11.9165C21.5652 10.7233 21.8196 9.44449 21.8196 8.15299C21.8196 6.8615 21.5652 5.58265 21.071 4.38948C20.5767 3.19631 19.8523 2.11218 18.939 1.19899C18.8735 1.13394 18.8216 1.05658 18.7861 0.971369C18.7507 0.88616 18.7324 0.794782 18.7324 0.702493C18.7324 0.610204 18.7507 0.518826 18.7861 0.433617C18.8216 0.348408 18.8735 0.271049 18.939 0.205993V0.206993Z" fill="white"/>
<path d="M14.795 8.15299C14.795 8.70876 14.6302 9.25205 14.3214 9.71415C14.0127 10.1762 13.5738 10.5364 13.0603 10.7491C12.5469 10.9618 11.9819 11.0174 11.4368 10.909C10.8917 10.8006 10.391 10.533 9.99802 10.14C9.60503 9.74698 9.33741 9.24629 9.22898 8.7012C9.12056 8.15611 9.1762 7.59111 9.38889 7.07765C9.60157 6.56419 9.96173 6.12533 10.4238 5.81657C10.8859 5.5078 11.4292 5.34299 11.985 5.34299C12.7302 5.34299 13.445 5.63905 13.972 6.16602C14.4989 6.693 14.795 7.40774 14.795 8.15299Z" fill="white"/>
<path fill-rule="evenodd" clip-rule="evenodd" d="M11.985 8.85499C12.1707 8.85499 12.3487 8.92874 12.48 9.06002C12.6113 9.19129 12.685 9.36934 12.685 9.55499V18.686C12.685 18.8716 12.6113 19.0497 12.48 19.181C12.3487 19.3122 12.1707 19.386 11.985 19.386C11.7994 19.386 11.6213 19.3122 11.49 19.181C11.3588 19.0497 11.285 18.8716 11.285 18.686V9.55699C11.2847 9.4649 11.3027 9.37366 11.3377 9.2885C11.3728 9.20334 11.4243 9.12594 11.4893 9.06072C11.5543 8.99551 11.6316 8.94377 11.7167 8.90847C11.8017 8.87316 11.8929 8.85499 11.985 8.85499Z" fill="white"/>
</svg>