<svg width="26" height="26" viewBox="0 0 26 26" fill="none" xmlns="http://www.w3.org/2000/svg">
<path d="M20.08 25.394C19.8271 25.3932 19.575 25.3654 19.328 25.311C14.6282 24.3388 10.2984 22.0594 6.83698 18.735C3.44946 15.4032 1.10004 11.1611 0.0729799 6.52199C-0.0482725 5.94383 -0.0186803 5.34419 0.158909 4.78077C0.336498 4.21735 0.656106 3.70913 1.08698 3.30499L4.09398 0.410993C4.2493 0.261216 4.43568 0.147469 4.6399 0.0778245C4.84413 0.00818025 5.06117 -0.0156526 5.27564 0.00801803C5.49011 0.0316887 5.69674 0.102282 5.88085 0.214787C6.06497 0.327292 6.22206 0.47895 6.34098 0.658993L10.099 6.21299C10.2402 6.4284 10.3085 6.68355 10.2935 6.94071C10.2786 7.19788 10.1813 7.4434 10.016 7.64099L8.12998 9.89599C8.88125 11.5589 9.94523 13.0618 11.264 14.323C12.5742 15.6298 14.1228 16.6734 15.826 17.397L18.163 15.541C18.3595 15.3855 18.5988 15.2936 18.8489 15.2775C19.0991 15.2614 19.3481 15.3219 19.563 15.451L25.237 19.119C25.4321 19.2349 25.5984 19.3935 25.7233 19.583C25.8483 19.7724 25.9286 19.9877 25.9582 20.2127C25.9879 20.4377 25.9661 20.6665 25.8945 20.8819C25.8229 21.0972 25.7034 21.2935 25.545 21.456L22.614 24.356C22.281 24.6873 21.8858 24.9495 21.4511 25.1275C21.0163 25.3055 20.5507 25.3957 20.081 25.393L20.08 25.394ZM5.13098 1.49299L2.12498 4.38699C1.88313 4.61248 1.704 4.89693 1.60513 5.21247C1.50626 5.528 1.49105 5.86381 1.56098 6.18699C2.51541 10.5417 4.7109 14.5266 7.88198 17.66C11.1394 20.7883 15.2141 22.933 19.637 23.847C19.9717 23.917 20.3186 23.9028 20.6466 23.8058C20.9745 23.7088 21.2732 23.5319 21.516 23.291L24.447 20.391L18.968 16.847L16.458 18.847C16.3619 18.923 16.2488 18.9744 16.1284 18.9967C16.0079 19.019 15.8839 19.0115 15.767 18.975C13.6825 18.2071 11.7935 16.988 10.235 15.405C8.62322 13.8998 7.37211 12.0502 6.57498 9.99399C6.54125 9.86953 6.54009 9.73849 6.57161 9.61345C6.60313 9.48842 6.66628 9.37359 6.75498 9.27999L8.78698 6.85199L5.13098 1.49299Z" fill="white"/>
</svg>